<svg xmlns="http://www.w3.org/2000/svg" width="24" height="24" viewBox="0 0 24 24">
  <path fill="currentColor" d="M19.14,12.94a7.75,7.75,0,0,0,.07-1l2-.53A1,1,0,0,0,21.41,9L19.92,7.48a1,1,0,0,0-1.27-.18l-2,.92a8.38,8.38,0,0,0-1.33-.76L15,4.6a1,1,0,0,0-.82-.72l-2.17-.26a1,1,0,0,0-1.11.76L10,6.64a7.77,7.77,0,0,0-1.21.7L6.92,6.21a1,1,0,0,0-1.27.18L4.59,9A1,1,0,0,0,4.8,10.47l2,.53A8.11,8.11,0,0,0,6.85,12,7.75,7.75,0,0,0,6.78,13l-2,.53A1,1,0,0,0,4.59,15l1.49,1.52a1,1,0,0,0,1.27.18l2-.92a8.38,8.38,0,0,0,1.33.76L9,19.4a1,1,0,0,0,.82.72l2.17.26a1,1,0,0,0,1.11-.76L14,17.36a7.77,7.77,0,0,0,1.21-.7l1.87,1.15a1,1,0,0,0,1.27-.18L21.41,15a1,1,0,0,0-.22-1.47ZM12,15.5A3.5,3.5,0,1,1,15.5,12,3.5,3.5,0,0,1,12,15.5Z"/>
</svg>
<svg xmlns="http://www.w3.org/2000/svg" width="24" height="24" viewBox="0 0 24 24">
  <path fill="currentColor" d="M19 6.41L17.59 5 12 10.59 6.41 5 5 6.41 10.59 12 5 17.59 6.41 19 12 13.41 17.59 19 19 17.59 13.41 12z"/>
</svg>

